<?xml version="1.0" encoding="UTF-8" standalone="no"?>
<svg width="211px" height="46px" viewBox="0 0 211 46" version="1.1" xmlns="http://www.w3.org/2000/svg" xmlns:xlink="http://www.w3.org/1999/xlink">
    <!-- Generator: Sketch 47.1 (45422) - http://www.bohemiancoding.com/sketch -->
    <title>Page 1 Copy@1x</title>
    <desc>Created with Sketch.</desc>
    <defs>
        <filter x="-3.4%" y="-12.8%" width="106.9%" height="135.9%" filterUnits="objectBoundingBox" id="filter-1">
            <feOffset dx="0" dy="2" in="SourceAlpha" result="shadowOffsetOuter1"></feOffset>
            <feGaussianBlur stdDeviation="2" in="shadowOffsetOuter1" result="shadowBlurOuter1"></feGaussianBlur>
            <feColorMatrix values="0 0 0 0 0   0 0 0 0 0   0 0 0 0 0  0 0 0 0.2 0" type="matrix" in="shadowBlurOuter1" result="shadowMatrixOuter1"></feColorMatrix>
            <feMerge>
                <feMergeNode in="shadowMatrixOuter1"></feMergeNode>
                <feMergeNode in="SourceGraphic"></feMergeNode>
            </feMerge>
        </filter>
        <polygon id="path-2" points="33.6926309 37.6545455 0.284067273 37.6545455 0.284067273 0.207307273 33.6926309 0.207307273"></polygon>
        <polygon id="path-4" points="10.7291273 0.237937814 10.7291273 10.0520364 0.330251653 10.0520364 0.330251653 0.237937814 10.7291273 0.237937814"></polygon>
    </defs>
    <g id="Page-1" stroke="none" stroke-width="1" fill="none" fill-rule="evenodd">
        <g id="Page-1-Copy" filter="url(#filter-1)" transform="translate(4.000000, 2.000000)">
            <path d="M13.1963636,22.86954 C13.2654545,22.0404491 13.8181818,21.72954 14.8545455,21.9368127 L17.4109091,22.3513582 C18.4127273,22.48954 18.8963636,22.86954 18.7581818,24.0786309 C18.5163636,26.4622673 17.7218182,28.3622673 16.3745455,29.7786309 C15.0272727,31.1604491 12.7818182,31.8513582 9.70727273,31.8513582 C2.79818182,31.8513582 0,27.9477218 0,19.2077218 C0,10.6059036 2.90181818,6.28772182 9.70727273,6.28772182 C15.3727273,6.28772182 18.4127273,8.91317636 18.7927273,14.1986309 C18.8963636,15.2004491 18.4127273,15.7877218 17.4109091,15.9259036 L14.8890909,16.3749945 C13.68,16.6168127 13.2654545,16.5131764 13.2309091,15.8222673 C13.1272727,13.4386309 11.9527273,11.6422673 9.70727273,11.6422673 C6.97818182,11.6422673 6.08,14.0949945 6.08,19.2077218 C6.08,24.3549945 6.94363636,26.4968127 9.70727273,26.4968127 C11.8145455,26.4968127 12.9890909,25.2877218 13.1963636,22.86954" id="Fill-1" fill="#FFFFFF"></path>
            <path d="M30.9180782,23.1459036 L34.9598964,23.1459036 L32.9217145,14.12954 L30.9180782,23.1459036 Z M42.7671691,30.08954 C43.0089873,30.8840855 42.5598964,31.5749945 41.69626,31.5749945 L38.4144418,31.5749945 C37.4471691,31.5749945 36.75626,30.9531764 36.5144418,30.08954 L35.8580782,27.1531764 L30.0544418,27.1531764 L29.3980782,30.08954 C29.15626,31.0913582 28.5689873,31.5749945 27.6017145,31.5749945 L24.3544418,31.5749945 C23.4908055,31.5749945 23.0071691,30.84954 23.2489873,30.1240855 L29.6053509,8.01499455 C29.8817145,7.04772182 30.5380782,6.56408545 31.5398964,6.56408545 L34.5108055,6.56408545 C35.5471691,6.56408545 36.1689873,7.04772182 36.4108055,8.01499455 L42.7671691,30.08954 Z" id="Fill-3" fill="#FFFFFF"></path>
            <path d="M61.1452473,6.56408545 C62.0779745,6.56408545 62.6652473,7.22044909 62.6652473,8.08408545 L62.6652473,10.2259036 C62.6652473,11.08954 62.0779745,11.7459036 61.1452473,11.7459036 L56.6197927,11.7459036 L56.6197927,30.0549945 C56.6197927,30.9186309 56.0670655,31.5749945 55.1343382,31.5749945 L52.1288836,31.5749945 C51.1961564,31.5749945 50.6088836,30.9186309 50.6088836,30.0549945 L50.6088836,11.7459036 L46.1179745,11.7459036 C45.1852473,11.7459036 44.5979745,11.08954 44.5979745,10.2259036 L44.5979745,8.08408545 C44.5979745,7.22044909 45.1852473,6.56408545 46.1179745,6.56408545 L61.1452473,6.56408545 Z" id="Fill-5" fill="#FFFFFF"></path>
            <path d="M74.2724164,26.3931764 L83.7378709,26.3931764 C84.7051436,26.3931764 85.2578709,26.9804491 85.2578709,27.9131764 L85.2578709,30.0549945 C85.2578709,30.9877218 84.7051436,31.5749945 83.7378709,31.5749945 L69.7815073,31.5749945 C68.84878,31.5749945 68.2615073,30.9186309 68.2615073,30.0549945 L68.2615073,8.08408545 C68.2615073,7.22044909 68.84878,6.56408545 69.7815073,6.56408545 L83.7378709,6.56408545 C84.7051436,6.56408545 85.2578709,7.15135818 85.2578709,8.08408545 L85.2578709,10.2604491 C85.2578709,11.1931764 84.7051436,11.7804491 83.7378709,11.7804491 L74.2724164,11.7804491 L74.2724164,16.4786309 L81.4924164,16.4786309 C82.4942345,16.4786309 82.9778709,16.9968127 82.9778709,17.9986309 L82.9778709,20.1404491 C82.9778709,21.0731764 82.4596891,21.6604491 81.4924164,21.6604491 L74.2724164,21.6604491 L74.2724164,26.3931764 Z" id="Fill-7" fill="#FFFFFF"></path>
            <path d="M100.146444,11.7804491 L97.3828073,11.7804491 L97.3828073,18.4477218 L100.422807,18.4477218 C102.91008,18.4477218 104.568262,17.3422673 104.568262,15.1313582 C104.568262,12.8859036 102.806444,11.7804491 100.146444,11.7804491 L100.146444,11.7804491 Z M109.404625,30.1931764 C109.784625,30.84954 109.404625,31.5749945 108.540989,31.5749945 L105.535535,31.5749945 C104.533716,31.5749945 103.842807,31.1259036 103.393716,30.1931764 L100.042807,23.1113582 L99.9391709,23.1459036 L99.2482618,23.1459036 L97.3828073,23.1459036 L97.3828073,30.0549945 C97.3828073,30.9186309 96.7955345,31.5749945 95.8628073,31.5749945 L92.8918982,31.5749945 C91.9591709,31.5749945 91.3718982,30.9186309 91.3718982,30.0549945 L91.3718982,8.08408545 C91.3718982,7.22044909 92.0282618,6.56408545 92.8918982,6.56408545 L100.042807,6.56408545 C106.502807,6.56408545 110.095535,8.98226727 110.095535,15.2349945 C110.095535,18.5168127 108.402807,20.9004491 105.604625,22.10954 L109.404625,30.1931764 Z" id="Fill-9" fill="#FFFFFF"></path>
            <g id="Group-13" transform="translate(114.690909, 0.138182)">
                <mask id="mask-3" fill="white">
                    <use xlink:href="#path-2"></use>
                </mask>
                <g id="Clip-12"></g>
                <path d="M29.8964309,2.26068909 C27.7190309,0.936561818 24.8116855,0.207307273 21.7101945,0.207307273 C18.9396491,0.207307273 16.2160855,0.541707273 13.6151582,1.20083455 C11.1251218,1.83232545 8.85963091,2.73050727 6.88121273,3.87085273 C4.88068545,5.02398 3.29055818,6.35743455 2.15470364,7.83390727 C0.913485455,9.44683455 0.284412727,11.13818 0.284067273,12.8602709 C0.284067273,14.6638891 1.15426727,16.3165436 2.80035818,17.6396345 C3.94208545,18.5571618 5.05755818,18.9986527 5.18088545,19.04598 C5.84899455,19.3019618 6.59794,18.9679073 6.85426727,18.3001436 C7.11024909,17.6320345 6.77619455,16.8827436 6.10808545,16.6267618 C6.09979455,16.6236527 5.25826727,16.29098 4.42364909,15.6201073 C3.39592182,14.7944709 2.87497636,13.8658891 2.87497636,12.8602709 C2.87532182,11.7230345 3.32372182,10.5633436 4.20808545,9.41367091 C5.12284909,8.22461636 6.49464909,7.08427091 8.17528545,6.11561636 C9.94781273,5.09376182 11.9922127,4.28539818 14.2518309,3.71228909 C16.6447945,3.10567091 19.1541764,2.79821636 21.7101945,2.79821636 C24.3435945,2.79821636 26.7728309,3.39343455 28.5501945,4.47436182 C30.6591945,5.75703455 31.1017218,7.24283455 31.1017218,8.26365273 C31.1017218,9.38810727 30.6477945,10.3816345 29.7140309,11.3012345 C27.9242309,13.0637436 24.4434309,14.4607618 19.6481764,15.3413255 C19.2619582,15.4124891 18.8802309,15.4774345 18.5054127,15.5371982 C18.1520127,15.5931618 17.88774,15.2200709 18.0580491,14.9053618 C19.6312491,12.0011255 21.14814,9.64132545 22.3330491,8.28714364 C22.8042491,7.74858 22.7496673,6.93019818 22.2114491,6.45899818 C21.6728855,5.98779818 20.8545036,6.04238 20.3833036,6.58094364 C18.8653764,8.31581636 16.9619218,11.3489073 15.0253036,15.0957073 C14.7810673,15.5682891 14.2998491,15.8757436 13.76854,15.9047618 C13.0917945,15.94138 12.5711945,15.98698 12.2647764,16.01358 C12.1891218,16.0201436 12.1034491,16.0277436 12.0730491,16.0298164 C11.37834,16.0560709 10.8266491,16.6271073 10.8266491,17.3242345 L10.8266491,17.4582709 C10.8266491,18.1543618 11.3766127,18.7260891 12.0723582,18.7526891 C12.1172673,18.7544164 12.22574,18.7537255 12.3901764,18.7492345 C12.7815764,18.7385255 13.05414,19.13718 12.8921218,19.4936891 C11.0726127,23.4964709 9.64139455,27.3652164 8.96948545,30.1361073 C8.80090364,30.8311618 9.22788545,31.5317436 9.92328545,31.7003255 C10.0258855,31.7251982 10.1284855,31.7369436 10.2297036,31.7369436 C10.8135218,31.7369436 11.3437945,31.3393255 11.4875036,30.7465255 C12.1967218,27.8215618 13.8210491,23.5593436 15.8682127,19.2345982 C16.0944855,18.75718 16.5746673,18.4400527 17.1025218,18.4593982 C17.6307218,18.4783982 18.1820673,18.5115618 18.7458491,18.5637255 C20.3442673,18.7108891 21.7768673,18.9865618 23.0032309,19.3834891 C24.4296127,19.8446709 25.5810127,20.47098 26.4256491,21.2451436 C27.6665218,22.38238 28.2700309,23.8443436 28.2700309,25.7139436 C28.2700309,26.8670709 27.9062673,28.0122527 27.1887582,29.1173618 C26.4781582,30.2121073 25.4134673,31.2560709 24.1097218,32.1366345 C21.3557582,33.9969073 17.7001582,35.0636709 14.0804855,35.0636709 C11.9241582,35.0636709 10.0089582,34.7824709 8.38843091,34.2280164 C7.12337636,33.7951618 6.03415818,33.1951073 5.15152182,32.44478 C3.64983091,31.1690164 3.24806727,29.8877255 3.23148545,29.8338345 C3.02352182,29.1494891 2.30014,28.7629255 1.61544909,28.9708891 C0.931103636,29.1788527 0.54454,29.9022345 0.752503636,30.5869255 C0.856485455,30.9289255 1.47588545,32.7214891 3.47364909,34.4190527 C4.60501273,35.3804527 5.97612182,36.1411436 7.54966727,36.6793618 C9.44068545,37.3263982 11.6381218,37.65458 14.0804855,37.65458 C16.1722127,37.65458 18.2508127,37.3509255 20.2585945,36.7522527 C22.2145582,36.1691255 23.99814,35.3386527 25.55994,34.2836345 C27.1714855,33.1951073 28.4507036,31.9314345 29.3620127,30.5281982 C30.3565764,28.9957618 30.86094,27.3762709 30.86094,25.7139436 C30.86094,23.1137073 29.9575764,20.9677436 28.1760673,19.33478 C27.2744309,18.5084527 26.1572309,17.82618 24.8320673,17.2907255 C24.5785036,17.1881255 24.5899036,16.8243618 24.8507218,16.7421436 C27.76014,15.8266891 29.9724309,14.6490345 31.4561582,13.2212709 C32.9402309,11.7931618 33.6926309,10.1253073 33.6926309,8.26365273 C33.6926309,5.88139818 32.3446673,3.74959818 29.8964309,2.26068909" id="Fill-11" fill="#FFFFFF" mask="url(#mask-3)"></path>
            </g>
            <path d="M159.781502,15.9277691 C158.255284,15.9277691 156.44372,17.2208055 154.935811,19.38646 C154.738556,19.6697327 154.550975,19.9616418 154.373756,20.2597691 C154.217265,20.5233509 154.483956,20.8335691 154.771029,20.7257873 C155.379375,20.4981327 156.037811,20.2190055 156.706611,19.8863327 C157.82692,19.3284236 158.747556,18.7204236 159.367993,18.12866 C159.779429,17.7365691 160.269975,17.1486055 160.272393,16.5734236 C160.273775,16.2752964 160.207447,16.0745873 160.141465,16.00826 C160.092065,15.9585145 159.954229,15.9277691 159.781502,15.9277691 M175.980211,16.8411509 L175.975029,16.8411509 C175.180138,16.8449509 174.291284,17.2266782 173.404847,17.9445327 C172.49492,18.6813873 171.647865,19.7156782 170.955575,20.9351327 C170.475393,21.7811509 170.096084,22.6789873 169.844247,23.5533327 C169.759611,23.8480055 170.099193,24.0763509 170.349302,23.8991327 C171.903502,22.7967873 173.271847,21.6730236 174.320302,20.6224964 C176.324629,18.6140236 176.478356,17.57386 176.478011,17.3030236 C176.477665,17.1921327 176.460047,17.0428964 176.377138,16.9606782 C176.300793,16.8846782 176.156047,16.8411509 175.980211,16.8411509 M156.334211,32.8201509 C155.274356,32.8201509 154.317447,32.6557145 153.490084,32.3320236 C152.66272,32.0079873 151.958684,31.5243509 151.397665,30.8942418 C150.408629,29.7836055 149.885956,28.2249145 149.885956,26.3870964 C149.885956,23.7053327 150.978975,20.5347509 152.809538,17.9058418 C153.724993,16.5913873 154.786229,15.4873145 155.878902,14.7131509 C157.167793,13.7997691 158.480865,13.33686 159.781502,13.33686 C160.902502,13.33686 161.594447,13.7952782 161.977211,14.1801145 C162.561029,14.7663509 162.867447,15.59786 162.863302,16.5844782 C162.85812,17.7780236 162.283975,18.9287327 161.156065,20.0041327 C160.33872,20.7831327 159.230156,21.5241327 157.861465,22.2053691 C156.407793,22.9294418 154.864993,23.4845873 153.643811,23.8065509 C153.134956,23.9405873 152.71212,24.3268055 152.620575,24.8449873 C152.526265,25.37906 152.476865,25.8972418 152.476865,26.3870964 C152.476865,27.2186055 152.625411,28.3769145 153.332556,29.1711145 C153.957829,29.8730782 154.967593,30.2292418 156.334211,30.2292418 C158.188611,30.2292418 161.464556,29.0723145 165.097702,27.1350055 C165.453175,26.9453509 165.806575,26.7512055 166.157211,26.5529145 C166.621156,26.2907145 166.887502,25.7870418 166.920665,25.2550418 C166.936556,24.99906 166.963502,24.7378964 167.000811,24.4725873 C167.224665,22.8883327 167.812975,21.2228964 168.70252,19.65626 C169.553029,18.1580236 170.615302,16.8698236 171.773956,15.9312236 C173.123647,14.8382055 174.571793,14.2571509 175.962593,14.2505873 C175.968465,14.2502418 175.974338,14.2502418 175.980211,14.2502418 C176.847647,14.2502418 177.63632,14.5597691 178.202865,15.1225145 C178.759393,15.6752418 179.066847,16.4476782 179.06892,17.2974964 C179.072029,18.7981509 178.118575,20.4843145 176.15432,22.4527145 C174.708247,23.9015509 172.717393,25.4695691 170.479538,26.9453509 C170.061884,27.2210236 169.859793,27.7734055 170.176229,28.16066 C170.789065,28.9106418 171.842356,29.2806236 173.316411,29.2633509 C176.292847,29.2270782 179.60852,27.3730236 181.86572,25.8240055 C182.455756,25.4191327 183.262047,25.5694055 183.66692,26.1590964 C184.071793,26.7491327 183.921865,27.5554236 183.331829,27.9602964 C181.732375,29.0578055 180.170229,29.9387145 178.68892,30.5784964 C176.774756,31.4051691 174.978047,31.8342236 173.347847,31.85426 C170.334102,31.8908782 168.760902,30.6683145 167.948393,29.5082782 C167.678247,29.1224055 167.171465,28.9572782 166.758302,29.18286 C166.611484,29.2630055 166.46432,29.34246 166.316811,29.4208782 C164.434775,30.4247691 162.575193,31.26146 160.93912,31.8404418 C159.102684,32.4905873 157.55332,32.8201509 156.334211,32.8201509" id="Fill-14" fill="#FFFFFF"></path>
            <g id="Group-18" transform="translate(192.763636, 3.247273)">
                <mask id="mask-5" fill="white">
                    <use xlink:href="#path-4"></use>
                </mask>
                <g id="Clip-17"></g>
                <path d="M6.23466,7.02309091 C6.32896909,7.22 6.46196909,7.59585455 6.29407818,7.89881818 C6.02462364,8.38487273 5.00484182,8.5272 3.97227818,7.95478182 C3.46515091,7.67392727 3.05578727,7.26456364 2.84851455,6.83205455 C2.75420545,6.63514545 2.62120545,6.25963636 2.78909636,5.95632727 C2.93626,5.69067273 3.30693273,5.52796364 3.78158727,5.52796364 C4.17575091,5.52796364 4.64176909,5.64023636 5.11020545,5.89967273 L5.11193273,5.90070909 C5.61836909,6.18156364 6.02773273,6.59058182 6.23466,7.02309091 M4.76544182,2.39089091 C4.93367818,2.08758182 5.32266,2.00156364 5.53960545,1.97703636 C5.61007818,1.96909091 5.68193273,1.96529091 5.75551455,1.96529091 C6.18146,1.96529091 6.65507818,2.09552727 7.08724182,2.33492727 C7.59436909,2.61612727 8.00373273,3.02514545 8.21100545,3.458 C8.30531455,3.65490909 8.43831455,4.03041818 8.27042364,4.33372727 C8.00096909,4.81978182 6.98118727,4.96210909 5.94827818,4.38969091 C5.44149636,4.10849091 5.03178727,3.69947273 4.82486,3.26696364 C4.73055091,3.07005455 4.59720545,2.6942 4.76544182,2.39089091 M10.2840782,6.79301818 L9.69231455,6.46483636 C9.33926,6.26930909 9.33235091,5.79154545 9.58073273,5.47338182 C9.65500545,5.37838182 9.72202364,5.27750909 9.78109636,5.17110909 C10.1783691,4.45429091 10.1738782,3.55783636 9.76866,2.71181818 C9.40489636,1.95216364 8.74991455,1.28198182 7.92462364,0.824254545 C7.09933273,0.366872727 6.18387818,0.166854545 5.34684182,0.260472727 C4.41480545,0.365145455 3.65204182,0.836690909 3.25476909,1.55350909 C3.19569636,1.65990909 3.14560545,1.77010909 3.10449636,1.88341818 C2.96666,2.26272727 2.55764182,2.51007273 2.20458727,2.3142 L1.61282364,1.98636364 C1.19551455,1.75490909 0.670078182,1.90587273 0.438623636,2.32283636 C0.207514545,2.74014545 0.358132727,3.26558182 0.775441818,3.49703636 L1.36720545,3.82487273 C1.72026,4.02074545 1.72716909,4.49850909 1.47844182,4.81667273 C1.40416909,4.91167273 1.33749636,5.01254545 1.27842364,5.11894545 C0.881150909,5.83576364 0.885641818,6.73221818 1.29086,7.57823636 C1.65462364,8.33789091 2.30926,9.00807273 3.13489636,9.46545455 C3.82684182,9.84925455 4.58235091,10.0520364 5.30193273,10.0520364 C5.44046,10.0520364 5.57760545,10.0444364 5.71233273,10.0292364 C6.64471455,9.92456364 7.40713273,9.45336364 7.80475091,8.73654545 C7.86347818,8.63014545 7.91356909,8.51994545 7.95502364,8.40663636 C8.09286,8.02698182 8.50187818,7.77998182 8.85493273,7.97550909 L9.44669636,8.30369091 C9.57935091,8.37727273 9.72306,8.41216364 9.86469636,8.41216364 C10.1683509,8.41216364 10.4630236,8.25152727 10.6208964,7.96687273 C10.8520055,7.54990909 10.7013873,7.02412727 10.2840782,6.79301818" id="Fill-16" fill="#FFFFFF" mask="url(#mask-5)"></path>
            </g>
            <path d="M193.694187,17.5494018 C193.694187,18.3601836 193.036787,19.0175836 192.226005,19.0175836 C191.415224,19.0175836 190.757824,18.3601836 190.757824,17.5494018 C190.757824,16.73862 191.415224,16.08122 192.226005,16.08122 C193.036787,16.08122 193.694187,16.73862 193.694187,17.5494018" id="Fill-19" fill="#FFFFFF"></path>
            <path d="M189.680316,22.1090564 C189.680316,22.9198382 189.022916,23.5772382 188.212135,23.5772382 C187.401353,23.5772382 186.743953,22.9198382 186.743953,22.1090564 C186.743953,21.2982745 187.401353,20.6408745 188.212135,20.6408745 C189.022916,20.6408745 189.680316,21.2982745 189.680316,22.1090564" id="Fill-21" fill="#FFFFFF"></path>
        </g>
    </g>
</svg>